<?xml version="1.0" encoding="UTF-8" standalone="no"?>
<svg
   width="543.05798"
   height="582.65594"
   xml:space="preserve"
   overflow="hidden"
   version="1.1"
   id="svg449"
   sodipodi:docname="favicon.svg"
   inkscape:version="1.4.2 (f4327f4, 2025-05-13)"
   xmlns:inkscape="http://www.inkscape.org/namespaces/inkscape"
   xmlns:sodipodi="http://sodipodi.sourceforge.net/DTD/sodipodi-0.dtd"
   xmlns="http://www.w3.org/2000/svg"
   xmlns:svg="http://www.w3.org/2000/svg"><sodipodi:namedview
     id="namedview449"
     pagecolor="#ffffff"
     bordercolor="#000000"
     borderopacity="0.25"
     inkscape:showpageshadow="2"
     inkscape:pageopacity="0.0"
     inkscape:pagecheckerboard="0"
     inkscape:deskcolor="#d1d1d1"
     inkscape:zoom="0.25"
     inkscape:cx="-282"
     inkscape:cy="138"
     inkscape:window-width="1920"
     inkscape:window-height="1129"
     inkscape:window-x="-8"
     inkscape:window-y="-8"
     inkscape:window-maximized="1"
     inkscape:current-layer="svg449"
     showguides="true"><sodipodi:guide
       position="539.73395,1619.5654"
       orientation="1,0"
       id="guide461"
       inkscape:locked="false" /><sodipodi:guide
       position="-806.7572,982.12138"
       orientation="0,-1"
       id="guide462"
       inkscape:locked="false" /></sodipodi:namedview><defs
     id="defs21"><rect
       x="405.16986"
       y="977.99622"
       width="1783.0967"
       height="344.0451"
       id="rect450" /><clipPath
       id="clip0"><rect
         x="846"
         y="798"
         width="2250"
         height="898"
         id="rect1" /></clipPath><clipPath
       id="clip1"><rect
         x="1105"
         y="804"
         width="552"
         height="582"
         id="rect2" /></clipPath><clipPath
       id="clip2"><rect
         x="1105"
         y="804"
         width="552"
         height="582"
         id="rect3" /></clipPath><clipPath
       id="clip3"><rect
         x="3019"
         y="1285"
         width="52"
         height="76"
         id="rect4" /></clipPath><clipPath
       id="clip4"><rect
         x="3019"
         y="1285"
         width="33"
         height="76"
         id="rect5" /></clipPath><clipPath
       id="clip5"><rect
         x="2780"
         y="1042"
         width="253"
         height="322"
         id="rect6" /></clipPath><clipPath
       id="clip6"><rect
         x="2780"
         y="1042"
         width="253"
         height="322"
         id="rect7" /></clipPath><clipPath
       id="clip7"><rect
         x="2608"
         y="1049"
         width="126"
         height="334"
         id="rect8" /></clipPath><clipPath
       id="clip8"><rect
         x="2608"
         y="1049"
         width="126"
         height="334"
         id="rect9" /></clipPath><clipPath
       id="clip9"><rect
         x="2007"
         y="797"
         width="547"
         height="558"
         id="rect10" /></clipPath><clipPath
       id="clip10"><rect
         x="2007"
         y="803"
         width="547"
         height="552"
         id="rect11" /></clipPath><clipPath
       id="clip11"><rect
         x="1875"
         y="1650"
         width="1152"
         height="28"
         id="rect12" /></clipPath><clipPath
       id="clip12"><rect
         x="1875"
         y="1650"
         width="1152"
         height="16"
         id="rect13" /></clipPath><clipPath
       id="clip13"><rect
         x="1721"
         y="1040"
         width="253"
         height="322"
         id="rect14" /></clipPath><clipPath
       id="clip14"><rect
         x="1721"
         y="1040"
         width="253"
         height="322"
         id="rect15" /></clipPath><clipPath
       id="clip15"><rect
         x="1414"
         y="877"
         width="144"
         height="83"
         id="rect16" /></clipPath><clipPath
       id="clip16"><rect
         x="1414"
         y="877"
         width="144"
         height="83"
         id="rect17" /></clipPath><clipPath
       id="clip17"><rect
         x="1252"
         y="1099"
         width="52"
         height="93"
         id="rect18" /></clipPath><clipPath
       id="clip18"><rect
         x="1252"
         y="1099"
         width="52"
         height="93"
         id="rect19" /></clipPath><clipPath
       id="clip19"><rect
         x="0"
         y="0"
         width="251898"
         height="1031404"
         id="rect20" /></clipPath><clipPath
       id="clip21"><rect
         x="3255976"
         y="478520"
         width="251898"
         height="1030105"
         id="rect21" /></clipPath></defs><rect
     style="fill:#ffffff;fill-opacity:1;stroke-width:6.56094;stroke-dasharray:6.56094, 6.56094;stroke-opacity:0.996078"
     id="rect22"
     width="543.05798"
     height="582.65594"
     x="0"
     y="0" /><path
     style="fill:#31322d;fill-opacity:1"
     d="m 19.03728,16.253991 256.70617,0.0772 0.077,97.557629 h -160.3063 l 0.077,109.13488 272.6828,-0.15437 137.422,137.90435 -0.077,200.90388 -221.357,-0.23154 0.077,-96.47709 124.7256,0.0772 v -64.21515 l -80.732,-80.8092 -329.37277,-0.44381 z"
     id="path459"
     sodipodi:nodetypes="ccccccccccccccc" /><path
     style="fill:#31322d;fill-opacity:1"
     d="m 355.18475,17.976991 h 167.2745 l 0.1091,141.787619 h -96.6535 v -45.13409 l -70.7847,-0.10915 z"
     id="path460" /><path
     style="fill:#31322d;fill-opacity:1"
     d="m 19.92708,434.75062 96.78577,0.0772 0.077,31.49012 101.8798,0.15437 0.077,96.47708 H 19.92708 Z"
     id="path461" /><rect
     style="fill:#31322d;stroke-width:1.07427"
     id="rect22-2"
     width="85.644989"
     height="4.5271749"
     x="218.68707"
     y="512.7641" /><rect
     style="fill:#31322d;stroke-width:1.03546"
     id="rect22-2-5"
     width="79.568291"
     height="4.5271749"
     x="275.67633"
     y="62.264122" /></svg>
